<mxfile host="app.diagrams.net" agent="Mozilla/5.0 (Macintosh; Intel Mac OS X 10_15_7) AppleWebKit/537.36 (KHTML, like Gecko) Chrome/128.0.0.0 Safari/537.36" version="24.7.14">
  <diagram name="Page-1" id="ZaHz7pkHLACxlTyG6I-X">
    <mxGraphModel dx="825" dy="712" grid="1" gridSize="10" guides="1" tooltips="1" connect="1" arrows="1" fold="1" page="1" pageScale="1" pageWidth="850" pageHeight="1100" math="0" shadow="0">
      <root>
        <mxCell id="0" />
        <mxCell id="1" parent="0" />
        <mxCell id="DtSaOkqhzlqooKWDMb_B-50" value="" style="rounded=0;whiteSpace=wrap;html=1;strokeWidth=3;" parent="1" vertex="1">
          <mxGeometry x="710" y="345" width="130" height="410" as="geometry" />
        </mxCell>
        <mxCell id="DtSaOkqhzlqooKWDMb_B-4" value="Project Workflow" style="whiteSpace=wrap;html=1;" parent="1" vertex="1">
          <mxGeometry x="80" y="80" width="760" height="40" as="geometry" />
        </mxCell>
        <mxCell id="DtSaOkqhzlqooKWDMb_B-23" style="edgeStyle=orthogonalEdgeStyle;rounded=0;orthogonalLoop=1;jettySize=auto;html=1;exitX=1;exitY=0.5;exitDx=0;exitDy=0;entryX=0;entryY=0.5;entryDx=0;entryDy=0;strokeWidth=3;endArrow=block;endFill=1;endSize=3;startSize=3;strokeColor=#666666;" parent="1" source="DtSaOkqhzlqooKWDMb_B-5" target="DtSaOkqhzlqooKWDMb_B-16" edge="1">
          <mxGeometry relative="1" as="geometry" />
        </mxCell>
        <mxCell id="DtSaOkqhzlqooKWDMb_B-74" value="" style="edgeStyle=orthogonalEdgeStyle;rounded=0;orthogonalLoop=1;jettySize=auto;html=1;entryX=0.5;entryY=0;entryDx=0;entryDy=0;" parent="1" source="DtSaOkqhzlqooKWDMb_B-5" target="DtSaOkqhzlqooKWDMb_B-94" edge="1">
          <mxGeometry relative="1" as="geometry">
            <mxPoint x="140" y="239.9999999999999" as="targetPoint" />
          </mxGeometry>
        </mxCell>
        <mxCell id="DtSaOkqhzlqooKWDMb_B-5" value="Pre-viz" style="whiteSpace=wrap;html=1;rounded=1;shadow=0;glass=0;strokeWidth=4;strokeColor=#666666;fontStyle=1;fillColor=#666666;fontColor=#E8E8E8;" parent="1" vertex="1">
          <mxGeometry x="80" y="160" width="120" height="40" as="geometry" />
        </mxCell>
        <mxCell id="DtSaOkqhzlqooKWDMb_B-27" style="edgeStyle=orthogonalEdgeStyle;rounded=0;orthogonalLoop=1;jettySize=auto;html=1;exitX=1;exitY=0.5;exitDx=0;exitDy=0;strokeWidth=3;endArrow=block;endFill=1;endSize=3;startSize=3;strokeColor=#666666;" parent="1" source="DtSaOkqhzlqooKWDMb_B-6" target="DtSaOkqhzlqooKWDMb_B-17" edge="1">
          <mxGeometry relative="1" as="geometry" />
        </mxCell>
        <mxCell id="DtSaOkqhzlqooKWDMb_B-80" style="edgeStyle=orthogonalEdgeStyle;rounded=0;orthogonalLoop=1;jettySize=auto;html=1;exitX=0.5;exitY=1;exitDx=0;exitDy=0;entryX=0.5;entryY=0;entryDx=0;entryDy=0;" parent="1" source="DtSaOkqhzlqooKWDMb_B-6" target="DtSaOkqhzlqooKWDMb_B-75" edge="1">
          <mxGeometry relative="1" as="geometry" />
        </mxCell>
        <mxCell id="DtSaOkqhzlqooKWDMb_B-6" value="Production" style="whiteSpace=wrap;html=1;strokeWidth=2;strokeColor=#666666;fontStyle=1;fillColor=#666666;rounded=1;fontColor=#E8E8E8;" parent="1" vertex="1">
          <mxGeometry x="400" y="160" width="120" height="40" as="geometry" />
        </mxCell>
        <mxCell id="DtSaOkqhzlqooKWDMb_B-7" value="Critique" style="whiteSpace=wrap;html=1;shadow=0;glass=0;rounded=1;strokeWidth=4;strokeColor=#666666;fontStyle=1;fillColor=#666666;fontColor=#E8E8E8;" parent="1" vertex="1">
          <mxGeometry x="720" y="160" width="120" height="40" as="geometry" />
        </mxCell>
        <mxCell id="DtSaOkqhzlqooKWDMb_B-24" style="edgeStyle=orthogonalEdgeStyle;rounded=0;orthogonalLoop=1;jettySize=auto;html=1;exitX=1;exitY=0.5;exitDx=0;exitDy=0;entryX=0;entryY=0.5;entryDx=0;entryDy=0;" parent="1" source="DtSaOkqhzlqooKWDMb_B-16" target="DtSaOkqhzlqooKWDMb_B-6" edge="1">
          <mxGeometry relative="1" as="geometry" />
        </mxCell>
        <mxCell id="DtSaOkqhzlqooKWDMb_B-44" value="" style="edgeStyle=orthogonalEdgeStyle;rounded=0;orthogonalLoop=1;jettySize=auto;html=1;endArrow=none;endFill=0;" parent="1" source="DtSaOkqhzlqooKWDMb_B-16" target="DtSaOkqhzlqooKWDMb_B-43" edge="1">
          <mxGeometry relative="1" as="geometry" />
        </mxCell>
        <mxCell id="DtSaOkqhzlqooKWDMb_B-73" value="" style="edgeStyle=orthogonalEdgeStyle;rounded=0;orthogonalLoop=1;jettySize=auto;html=1;strokeWidth=3;endArrow=block;endFill=1;endSize=3;startSize=3;strokeColor=#666666;" parent="1" source="DtSaOkqhzlqooKWDMb_B-16" target="DtSaOkqhzlqooKWDMb_B-6" edge="1">
          <mxGeometry relative="1" as="geometry" />
        </mxCell>
        <mxCell id="DtSaOkqhzlqooKWDMb_B-16" value="Intention statement" style="whiteSpace=wrap;html=1;shadow=0;glass=0;rounded=1;strokeWidth=4;strokeColor=#666666;fontStyle=1;fillColor=#666666;fontColor=#E8E8E8;" parent="1" vertex="1">
          <mxGeometry x="240" y="160" width="120" height="40" as="geometry" />
        </mxCell>
        <mxCell id="DtSaOkqhzlqooKWDMb_B-28" style="edgeStyle=orthogonalEdgeStyle;rounded=0;orthogonalLoop=1;jettySize=auto;html=1;exitX=1;exitY=0.5;exitDx=0;exitDy=0;entryX=0;entryY=0.5;entryDx=0;entryDy=0;strokeWidth=3;endArrow=block;endFill=1;endSize=3;startSize=3;strokeColor=#666666;" parent="1" source="DtSaOkqhzlqooKWDMb_B-17" target="DtSaOkqhzlqooKWDMb_B-7" edge="1">
          <mxGeometry relative="1" as="geometry" />
        </mxCell>
        <mxCell id="DtSaOkqhzlqooKWDMb_B-47" style="edgeStyle=orthogonalEdgeStyle;rounded=0;orthogonalLoop=1;jettySize=auto;html=1;exitX=0.5;exitY=1;exitDx=0;exitDy=0;entryX=0.5;entryY=0;entryDx=0;entryDy=0;endArrow=none;endFill=0;" parent="1" source="DtSaOkqhzlqooKWDMb_B-17" target="DtSaOkqhzlqooKWDMb_B-46" edge="1">
          <mxGeometry relative="1" as="geometry" />
        </mxCell>
        <mxCell id="DtSaOkqhzlqooKWDMb_B-17" value="Work Statement" style="whiteSpace=wrap;html=1;shadow=0;glass=0;rounded=1;strokeWidth=4;strokeColor=#666666;fontStyle=1;fillColor=#666666;fontColor=#E8E8E8;" parent="1" vertex="1">
          <mxGeometry x="560" y="160" width="120" height="40" as="geometry" />
        </mxCell>
        <mxCell id="DtSaOkqhzlqooKWDMb_B-43" value=".doc" style="rounded=1;whiteSpace=wrap;html=1;shadow=0;dashed=1;" parent="1" vertex="1">
          <mxGeometry x="260" y="220" width="80" height="40" as="geometry" />
        </mxCell>
        <mxCell id="DtSaOkqhzlqooKWDMb_B-46" value=".doc" style="rounded=1;whiteSpace=wrap;html=1;shadow=0;dashed=1;" parent="1" vertex="1">
          <mxGeometry x="580" y="220" width="80" height="40" as="geometry" />
        </mxCell>
        <mxCell id="DtSaOkqhzlqooKWDMb_B-72" style="edgeStyle=orthogonalEdgeStyle;rounded=0;orthogonalLoop=1;jettySize=auto;html=1;exitX=0.5;exitY=1;exitDx=0;exitDy=0;entryX=0.5;entryY=0;entryDx=0;entryDy=0;" parent="1" source="DtSaOkqhzlqooKWDMb_B-83" target="DtSaOkqhzlqooKWDMb_B-71" edge="1">
          <mxGeometry relative="1" as="geometry">
            <mxPoint x="460" y="640" as="sourcePoint" />
            <Array as="points" />
          </mxGeometry>
        </mxCell>
        <mxCell id="DtSaOkqhzlqooKWDMb_B-52" value="&lt;b&gt;Technical&lt;/b&gt;:&amp;nbsp;&lt;div&gt;3D quality,&amp;nbsp; composition, color theory, presentation of work.&lt;/div&gt;" style="whiteSpace=wrap;html=1;align=left;spacingLeft=4;" parent="1" vertex="1">
          <mxGeometry x="720" y="480" width="110" height="115" as="geometry" />
        </mxCell>
        <mxCell id="DtSaOkqhzlqooKWDMb_B-53" value="&lt;b&gt;Concept or story&lt;/b&gt;: understandable, novel or transformational,&lt;div&gt;authentic, engages with critical themes and ideas, takes risks&lt;/div&gt;" style="whiteSpace=wrap;html=1;align=left;spacingLeft=4;" parent="1" vertex="1">
          <mxGeometry x="720" y="615" width="110" height="120" as="geometry" />
        </mxCell>
        <mxCell id="DtSaOkqhzlqooKWDMb_B-54" value="Intent vs outcome" style="whiteSpace=wrap;html=1;" parent="1" vertex="1">
          <mxGeometry x="720" y="395" width="110" height="30" as="geometry" />
        </mxCell>
        <mxCell id="DtSaOkqhzlqooKWDMb_B-56" value="Discuss" style="text;html=1;align=center;verticalAlign=middle;whiteSpace=wrap;rounded=0;" parent="1" vertex="1">
          <mxGeometry x="750" y="355" width="60" height="30" as="geometry" />
        </mxCell>
        <mxCell id="DtSaOkqhzlqooKWDMb_B-57" style="edgeStyle=orthogonalEdgeStyle;rounded=0;orthogonalLoop=1;jettySize=auto;html=1;exitX=0.5;exitY=1;exitDx=0;exitDy=0;entryX=0.5;entryY=0;entryDx=0;entryDy=0;strokeWidth=1;strokeColor=#0A0A0A;" parent="1" source="DtSaOkqhzlqooKWDMb_B-7" target="DtSaOkqhzlqooKWDMb_B-50" edge="1">
          <mxGeometry relative="1" as="geometry">
            <mxPoint x="680" y="260" as="sourcePoint" />
            <mxPoint x="680" y="300" as="targetPoint" />
          </mxGeometry>
        </mxCell>
        <mxCell id="DtSaOkqhzlqooKWDMb_B-71" value="Images" style="rounded=1;whiteSpace=wrap;html=1;shadow=0;dashed=1;" parent="1" vertex="1">
          <mxGeometry x="420" y="675" width="80" height="60" as="geometry" />
        </mxCell>
        <mxCell id="DtSaOkqhzlqooKWDMb_B-89" style="edgeStyle=orthogonalEdgeStyle;rounded=0;orthogonalLoop=1;jettySize=auto;html=1;exitX=0.5;exitY=1;exitDx=0;exitDy=0;entryX=0.5;entryY=0;entryDx=0;entryDy=0;" parent="1" source="DtSaOkqhzlqooKWDMb_B-75" target="DtSaOkqhzlqooKWDMb_B-83" edge="1">
          <mxGeometry relative="1" as="geometry" />
        </mxCell>
        <mxCell id="DtSaOkqhzlqooKWDMb_B-75" value="" style="rounded=0;whiteSpace=wrap;html=1;strokeWidth=3;" parent="1" vertex="1">
          <mxGeometry x="400" y="240" width="120" height="220" as="geometry" />
        </mxCell>
        <mxCell id="DtSaOkqhzlqooKWDMb_B-76" value="Model &amp;amp; UV Unwrap" style="rounded=0;whiteSpace=wrap;html=1;strokeWidth=1;" parent="1" vertex="1">
          <mxGeometry x="410" y="290" width="100" height="40" as="geometry" />
        </mxCell>
        <mxCell id="DtSaOkqhzlqooKWDMb_B-77" value="Texture &amp;amp; Shader" style="rounded=0;whiteSpace=wrap;html=1;strokeWidth=1;" parent="1" vertex="1">
          <mxGeometry x="410" y="340" width="100" height="30" as="geometry" />
        </mxCell>
        <mxCell id="DtSaOkqhzlqooKWDMb_B-78" value="Lighting" style="rounded=0;whiteSpace=wrap;html=1;strokeWidth=1;" parent="1" vertex="1">
          <mxGeometry x="410" y="380" width="100" height="30" as="geometry" />
        </mxCell>
        <mxCell id="DtSaOkqhzlqooKWDMb_B-79" value="Rendering" style="rounded=0;whiteSpace=wrap;html=1;strokeWidth=1;" parent="1" vertex="1">
          <mxGeometry x="410" y="420" width="100" height="30" as="geometry" />
        </mxCell>
        <mxCell id="DtSaOkqhzlqooKWDMb_B-82" value="Production" style="text;html=1;align=center;verticalAlign=middle;whiteSpace=wrap;rounded=0;" parent="1" vertex="1">
          <mxGeometry x="430" y="245" width="60" height="30" as="geometry" />
        </mxCell>
        <mxCell id="DtSaOkqhzlqooKWDMb_B-83" value="" style="rounded=0;whiteSpace=wrap;html=1;strokeWidth=3;" parent="1" vertex="1">
          <mxGeometry x="400" y="490" width="120" height="130" as="geometry" />
        </mxCell>
        <mxCell id="DtSaOkqhzlqooKWDMb_B-85" value="Post-production" style="text;html=1;align=center;verticalAlign=middle;whiteSpace=wrap;rounded=0;" parent="1" vertex="1">
          <mxGeometry x="430" y="495" width="60" height="30" as="geometry" />
        </mxCell>
        <mxCell id="DtSaOkqhzlqooKWDMb_B-86" value="&lt;div&gt;Colorgrading&lt;/div&gt;" style="whiteSpace=wrap;html=1;rounded=0;strokeWidth=1;" parent="1" vertex="1">
          <mxGeometry x="410" y="540" width="100" height="30" as="geometry" />
        </mxCell>
        <mxCell id="DtSaOkqhzlqooKWDMb_B-88" value="&lt;div&gt;Image Formatting&lt;/div&gt;" style="whiteSpace=wrap;html=1;rounded=0;strokeWidth=1;" parent="1" vertex="1">
          <mxGeometry x="410" y="580" width="100" height="30" as="geometry" />
        </mxCell>
        <mxCell id="DtSaOkqhzlqooKWDMb_B-94" value="" style="rounded=0;whiteSpace=wrap;html=1;strokeWidth=3;" parent="1" vertex="1">
          <mxGeometry x="70" y="280" width="140" height="200" as="geometry" />
        </mxCell>
        <mxCell id="DtSaOkqhzlqooKWDMb_B-95" value="Concept Development" style="text;html=1;align=center;verticalAlign=middle;whiteSpace=wrap;rounded=0;" parent="1" vertex="1">
          <mxGeometry x="80" y="285" width="120" height="35" as="geometry" />
        </mxCell>
        <mxCell id="DtSaOkqhzlqooKWDMb_B-100" style="edgeStyle=orthogonalEdgeStyle;rounded=0;orthogonalLoop=1;jettySize=auto;html=1;exitX=1;exitY=0.5;exitDx=0;exitDy=0;entryX=0;entryY=0.5;entryDx=0;entryDy=0;endArrow=none;endFill=0;" parent="1" source="DtSaOkqhzlqooKWDMb_B-96" target="DtSaOkqhzlqooKWDMb_B-99" edge="1">
          <mxGeometry relative="1" as="geometry" />
        </mxCell>
        <mxCell id="DtSaOkqhzlqooKWDMb_B-96" value="Subject matter research" style="rounded=0;whiteSpace=wrap;html=1;strokeWidth=1;strokeColor=default;align=center;verticalAlign=middle;fontFamily=Helvetica;fontSize=12;fontColor=default;fillColor=default;" parent="1" vertex="1">
          <mxGeometry x="80" y="430" width="120" height="40" as="geometry" />
        </mxCell>
        <mxCell id="DtSaOkqhzlqooKWDMb_B-102" style="edgeStyle=orthogonalEdgeStyle;rounded=0;orthogonalLoop=1;jettySize=auto;html=1;exitX=1;exitY=0.5;exitDx=0;exitDy=0;entryX=0;entryY=0.5;entryDx=0;entryDy=0;strokeColor=default;align=center;verticalAlign=middle;fontFamily=Helvetica;fontSize=11;fontColor=default;labelBackgroundColor=default;endArrow=none;endFill=0;" parent="1" source="DtSaOkqhzlqooKWDMb_B-97" target="DtSaOkqhzlqooKWDMb_B-101" edge="1">
          <mxGeometry relative="1" as="geometry" />
        </mxCell>
        <mxCell id="DtSaOkqhzlqooKWDMb_B-97" value="writing, sketches" style="rounded=0;whiteSpace=wrap;html=1;strokeWidth=1;strokeColor=default;align=center;verticalAlign=middle;fontFamily=Helvetica;fontSize=12;fontColor=default;fillColor=default;" parent="1" vertex="1">
          <mxGeometry x="80" y="380" width="120" height="40" as="geometry" />
        </mxCell>
        <mxCell id="DtSaOkqhzlqooKWDMb_B-104" style="edgeStyle=orthogonalEdgeStyle;rounded=0;orthogonalLoop=1;jettySize=auto;html=1;exitX=1;exitY=0.5;exitDx=0;exitDy=0;entryX=0;entryY=0.5;entryDx=0;entryDy=0;strokeColor=default;align=center;verticalAlign=middle;fontFamily=Helvetica;fontSize=11;fontColor=default;labelBackgroundColor=default;endArrow=none;endFill=0;" parent="1" source="DtSaOkqhzlqooKWDMb_B-98" target="DtSaOkqhzlqooKWDMb_B-103" edge="1">
          <mxGeometry relative="1" as="geometry">
            <Array as="points">
              <mxPoint x="220" y="350" />
              <mxPoint x="220" y="335" />
            </Array>
          </mxGeometry>
        </mxCell>
        <mxCell id="DtSaOkqhzlqooKWDMb_B-98" value="gather&amp;nbsp;&lt;div&gt;references&lt;/div&gt;" style="rounded=0;whiteSpace=wrap;html=1;strokeWidth=1;strokeColor=default;align=center;verticalAlign=middle;fontFamily=Helvetica;fontSize=12;fontColor=default;fillColor=default;" parent="1" vertex="1">
          <mxGeometry x="80" y="330" width="120" height="40" as="geometry" />
        </mxCell>
        <mxCell id="DtSaOkqhzlqooKWDMb_B-99" value="books, internet" style="rounded=1;whiteSpace=wrap;html=1;shadow=0;dashed=1;fontColor=#F7F7F7;strokeColor=none;fillColor=#030303;" parent="1" vertex="1">
          <mxGeometry x="230" y="435" width="100" height="30" as="geometry" />
        </mxCell>
        <mxCell id="DtSaOkqhzlqooKWDMb_B-101" value="paper &amp;amp; pencil" style="rounded=1;whiteSpace=wrap;html=1;shadow=0;dashed=1;strokeColor=none;fillColor=#030303;fontColor=#FFFFFF;" parent="1" vertex="1">
          <mxGeometry x="230" y="385" width="100" height="30" as="geometry" />
        </mxCell>
        <mxCell id="DtSaOkqhzlqooKWDMb_B-103" value="images, video,&amp;nbsp;&lt;div&gt;real-world observation&lt;/div&gt;" style="rounded=1;whiteSpace=wrap;html=1;shadow=0;strokeColor=none;fillColor=#000000;fontColor=#FAFAFA;" parent="1" vertex="1">
          <mxGeometry x="230" y="300" width="100" height="70" as="geometry" />
        </mxCell>
        <mxCell id="DtSaOkqhzlqooKWDMb_B-106" value="Novelty" style="whiteSpace=wrap;html=1;" parent="1" vertex="1">
          <mxGeometry x="720" y="435" width="110" height="30" as="geometry" />
        </mxCell>
      </root>
    </mxGraphModel>
  </diagram>
</mxfile>
